<?xml version="1.0" encoding="utf-8"?>
<!-- Generator: Adobe Illustrator 24.0.1, SVG Export Plug-In . SVG Version: 6.00 Build 0)  -->
<svg version="1.1" id="Calque_1" xmlns="http://www.w3.org/2000/svg" xmlns:xlink="http://www.w3.org/1999/xlink" x="0px" y="0px"
	 viewBox="0 0 220 51.7" style="enable-background:new 0 0 220 51.7;" xml:space="preserve">
<style type="text/css">
	.st0{fill:#17252A;}
	.st1{fill:url(#SVGID_1_);}
	.st2{fill:url(#SVGID_2_);}
	.st3{fill:url(#SVGID_3_);}
</style>
<g id="_x33_600d05c-91cb-471d-91c9-1b7a716dbfeb" transform="matrix(2.617858409881592,0,0,2.617858409881592,101.85476102260095,122.33353093738421)">
	<path class="st0" d="M-6.9-33.1h2v-9.8h-2.3l-2.4,4.6h0l-2.4-4.6h-2.3v9.8h2v-6.5h0l0.7,1.5l1.9,3.4l1.9-3.5l0.7-1.4h0.1V-33.1z
		 M1.5-33.1h2.1v-7.4H1.5v4.8c0,0.7-0.7,1.1-1.3,1.1c-0.8,0-1.1-0.5-1.1-1.4v-4.4h-2.1v4.6c0,1.8,0.8,2.9,2.3,2.9
		c1.2,0,1.8-0.7,2.1-1.4h0.1V-33.1z M8.5-33.1v-1.6H7.6v-8.8H5.5v8.3c0,1.3,0.6,2,2,2H8.5z M13.5-33.1v-1.6h-1.4v-4.1h1.5v-1.6h-1.5
		v-2h-1.9v1.2c0,0.5-0.2,0.8-0.7,0.8H9v1.6h1v3.6c0,1.4,0.8,2.1,2.2,2.1H13.5z M18.5-37l-0.5,2.1h-0.1L17.3-37l-1.1-3.4h-2.1
		l2.6,7.7l-0.3,0.8h-1.4v1.6h1.3c1.3,0,1.9-0.5,2.3-1.7l2.8-8.5h-1.9L18.5-37z M23.1-32.9c0.8,0,1.2-0.5,1.2-1.1v-0.3
		c0-0.6-0.4-1.1-1.2-1.1s-1.2,0.5-1.2,1.1v0.3C21.9-33.4,22.2-32.9,23.1-32.9z M28.3-33.1v-4.8c0-0.7,0.6-1.1,1.2-1.1
		c0.7,0,1,0.5,1,1.4v4.4h2.1v-4.8c0-0.7,0.6-1.1,1.2-1.1c0.7,0,1,0.5,1,1.4v4.4h2.1v-4.6c0-1.8-0.8-2.9-2.2-2.9
		c-1.1,0-2,0.7-2.2,1.5h0c-0.3-1-1-1.5-2.1-1.5c-1.1,0-1.7,0.6-2,1.4h-0.1v-1.3h-2.1v7.4H28.3z M41.8-32.9c1.3,0,2.4-0.5,3.1-1.2
		l-1-1.3c-0.5,0.5-0.9,0.9-1.8,0.9c-1.1,0-1.6-0.6-1.6-1.6v-0.1h4.7v-0.6c0-2-1-3.8-3.4-3.8c-2.2,0-3.4,1.5-3.4,3.8
		C38.3-34.4,39.5-32.9,41.8-32.9z M41.8-39.1c0.8,0,1.2,0.6,1.2,1.5v0.1h-2.6v-0.1C40.4-38.5,40.9-39.1,41.8-39.1z"/>
</g>
<g id="_x34_c15b954-75aa-4da2-9518-e706ea75f860" transform="matrix(1.61491060256958,0,0,1.61491060256958,40,124.16143015931827)">
	
		<linearGradient id="SVGID_1_" gradientUnits="userSpaceOnUse" x1="-137.087" y1="179.3908" x2="-136.087" y2="179.3908" gradientTransform="matrix(16.2416 7.5736 7.5736 -16.2416 857.9455 3892.9417)">
		<stop  offset="0" style="stop-color:#41E296"/>
		<stop  offset="1" style="stop-color:#00C4EE"/>
	</linearGradient>
	<path class="st1" d="M-8.8-60.6l0.7-0.7L2.3-50.9l-0.7,0.7L-8.8-60.6z"/>
	
		<linearGradient id="SVGID_2_" gradientUnits="userSpaceOnUse" x1="-141.2249" y1="182.0453" x2="-140.2249" y2="182.0453" gradientTransform="matrix(31.892 14.8722 14.8715 -31.8934 1774.5962 7839.5366)">
		<stop  offset="0" style="stop-color:#41E296"/>
		<stop  offset="1" style="stop-color:#00C4EE"/>
	</linearGradient>
	<path class="st2" d="M-19.8-50.5L1.2-71.6L2-70.9l-21.1,21.1L-19.8-50.5z"/>
	
		<linearGradient id="SVGID_3_" gradientUnits="userSpaceOnUse" x1="-142.5949" y1="182.9241" x2="-141.5949" y2="182.9241" gradientTransform="matrix(46.8354 21.8397 21.8397 -46.8354 2655.4392 11611.6807)">
		<stop  offset="0" style="stop-color:#41E296"/>
		<stop  offset="1" style="stop-color:#00C4EE"/>
	</linearGradient>
	<path class="st3" d="M6.2-75.9v4.2H2v-4.2H6.2 M7.2-76.9H1v6.2h6.2V-76.9z M6.2-50.1v4.2H2v-4.2H6.2 M7.2-51.1H1v6.2h6.2V-51.1z
		 M-19.6-50.1v4.2h-4.2v-4.2H-19.6 M-18.6-51.1h-6.2v6.2h6.2V-51.1z"/>
</g>
</svg>
