<?xml version="1.0" standalone="no"?>
<!DOCTYPE svg PUBLIC "-//W3C//DTD SVG 20010904//EN"
 "http://www.w3.org/TR/2001/REC-SVG-20010904/DTD/svg10.dtd">
<svg version="1.0" xmlns="http://www.w3.org/2000/svg"
 width="700.000000pt" height="700.000000pt" viewBox="0 0 700.000000 700.000000"
 preserveAspectRatio="xMidYMid meet">
<metadata>
Created by potrace 1.11, written by Peter Selinger 2001-2013
</metadata>
<g transform="translate(0.000000,700.000000) scale(0.100000,-0.100000)"
fill="#000000" stroke="none">
<path d="M5076 6061 c-2 -3 -3 -201 -3 -439 l0 -434 -1630 -1630 -1630 -1630
-439 -1 -439 -2 -1 -493 c-1 -492 -1 -492 20 -497 12 -2 235 -3 496 -2 l475 2
1 438 1 439 804 804 804 804 768 -769 769 -769 0 -471 -1 -471 22 -5 c12 -2
236 -3 497 -2 l475 2 1 497 2 496 -377 1 c-207 0 -391 0 -409 0 -29 1 -106 75
-833 802 l-801 802 770 770 771 771 438 0 438 1 1 493 c1 492 1 492 -20 497
-33 6 -966 3 -970 -4z m829 -491 l0 -335 -335 0 -335 0 -1 330 c-1 182 0 332
1 335 2 3 153 5 337 5 l333 0 0 -335z m-4139 -4140 l0 -335 -325 1 c-179 1
-331 2 -336 3 -7 1 -11 114 -10 334 l0 333 335 0 335 -1 1 -335z m4139 0 l0
-335 -320 -1 c-176 -1 -327 0 -336 2 -13 4 -15 42 -14 332 1 180 3 330 4 333
0 3 151 5 334 5 l332 -1 0 -335z"/>
</g>
</svg>
